HIERARCHY
ROOT Hips
{
	OFFSET 0.00000 0.00000 0.00000
	CHANNELS 6 Xposition Yposition Zposition Zrotation Yrotation Xrotation 
	JOINT LHipJoint
	{
		OFFSET 0 0 0
		CHANNELS 3 Zrotation Yrotation Xrotation
		JOINT LeftUpLeg
		{
			OFFSET 1.44361 -1.63093 0.70831
			CHANNELS 3 Zrotation Yrotation Xrotation
			JOINT LeftLeg
			{
				OFFSET 2.20103 -6.04728 0.00000
				CHANNELS 3 Zrotation Yrotation Xrotation
				JOINT LeftFoot
				{
					OFFSET 2.54154 -6.98283 0.00000
					CHANNELS 3 Zrotation Yrotation Xrotation
					JOINT LeftToeBase
					{
						OFFSET 0.05971 -0.16406 1.77582
						CHANNELS 3 Zrotation Yrotation Xrotation
						End Site
						{
							OFFSET 0.00000 -0.00000 0.90832
						}
					}
				}
			}
		}
	}
	JOINT RHipJoint
	{
		OFFSET 0 0 0
		CHANNELS 3 Zrotation Yrotation Xrotation
		JOINT RightUpLeg
		{
			OFFSET -1.65838 -1.63093 0.70830
			CHANNELS 3 Zrotation Yrotation Xrotation
			JOINT RightLeg
			{
				OFFSET -2.26926 -6.23475 0.00000
				CHANNELS 3 Zrotation Yrotation Xrotation
				JOINT RightFoot
				{
					OFFSET -2.34808 -6.45129 0.00000
					CHANNELS 3 Zrotation Yrotation Xrotation
					JOINT RightToeBase
					{
						OFFSET -0.18633 -0.51195 1.68539
						CHANNELS 3 Zrotation Yrotation Xrotation
						End Site
						{
							OFFSET -0.00000 -0.00000 0.88927
						}
					}
				}
			}
		}
	}
	JOINT LowerBack
	{
		OFFSET 0 0 0
		CHANNELS 3 Zrotation Yrotation Xrotation
		JOINT Spine
		{
			OFFSET -0.10393 2.01691 0.06920
			CHANNELS 3 Zrotation Yrotation Xrotation
			JOINT Spine1
			{
				OFFSET 0.04092 2.01302 -0.05283
				CHANNELS 3 Zrotation Yrotation Xrotation
				JOINT Neck
				{
					OFFSET 0 0 0
					CHANNELS 3 Zrotation Yrotation Xrotation
					JOINT Neck1
					{
						OFFSET -0.02870 1.58978 -0.03113
						CHANNELS 3 Zrotation Yrotation Xrotation
						JOINT Head
						{
							OFFSET 0.11532 1.54326 -0.29195
							CHANNELS 3 Zrotation Yrotation Xrotation
							End Site
							{
								OFFSET 0.04056 1.59999 -0.09535
							}
						}
					}
				}
				JOINT LeftShoulder
				{
					OFFSET 0 0 0
					CHANNELS 3 Zrotation Yrotation Xrotation
					JOINT LeftArm
					{
						OFFSET 3.30641 1.15764 0.01104
						CHANNELS 3 Zrotation Yrotation Xrotation
						JOINT LeftForeArm
						{
							OFFSET 4.63208 -0.00000 0.00000
							CHANNELS 3 Zrotation Yrotation Xrotation
							JOINT LeftHand
							{
								OFFSET 3.41924 -0.00000 -0.00000
								CHANNELS 3 Zrotation Yrotation Xrotation
								JOINT LeftFingerBase
								{
									OFFSET 0 0 0
									CHANNELS 3 Zrotation Yrotation Xrotation
									JOINT LeftHandIndex1
									{
										OFFSET 0.62537 -0.00000 -0.00000
										CHANNELS 3 Zrotation Yrotation Xrotation
										End Site
										{
											OFFSET 0.50419 -0.00000 -0.00000
										}
									}
								}
								JOINT LThumb
								{
									OFFSET 0 0 0
									CHANNELS 3 Zrotation Yrotation Xrotation
									End Site
									{
										OFFSET 0.51189 -0.00000 0.51189
									}
								}
							}
						}
					}
				}
				JOINT RightShoulder
				{
					OFFSET 0 0 0
					CHANNELS 3 Zrotation Yrotation Xrotation
					JOINT RightArm
					{
						OFFSET -3.78081 1.02180 -0.16609
						CHANNELS 3 Zrotation Yrotation Xrotation
						JOINT RightForeArm
						{
							OFFSET -4.40640 -0.00000 -0.00000
							CHANNELS 3 Zrotation Yrotation Xrotation
							JOINT RightHand
							{
								OFFSET -3.44675 -0.00000 0.00000
								CHANNELS 3 Zrotation Yrotation Xrotation
								JOINT RightFingerBase
								{
									OFFSET 0 0 0
									CHANNELS 3 Zrotation Yrotation Xrotation
									JOINT RightHandIndex1
									{
										OFFSET -0.51367 -0.00000 -0.00000
										CHANNELS 3 Zrotation Yrotation Xrotation
										End Site
										{
											OFFSET -0.41414 -0.00000 -0.00000
										}
									}
								}
								JOINT RThumb
								{
									OFFSET 0 0 0
									CHANNELS 3 Zrotation Yrotation Xrotation
									End Site
									{
										OFFSET -0.42046 -0.00000 0.42046
									}
								}
							}
						}
					}
				}
			}
		}
	}
}
MOTION
Frames: 14
Frame Time: .0083333
8.1721 15.9682 -0.8108 -179.8630 6.9480 -175.3630 0.0000 0.0000 0.0000 -22.5417 -10.1644 -29.4674 4.9789 13.3600 40.7316 0.3505 -1.9330 -10.6793 10.5485 -17.7069 -61.3062 0.0000 0.0000 0.0000 -7.8176 21.8472 -33.6681 -14.4080 -19.2331 73.4466 -40.2907 22.5302 -166.3448 -0.3617 -3.8637 10.6936 -9.6371 -0.4707 7.1768 0.3031 -0.3134 7.2458 5.7571 -0.2981 3.7166 -6.5927 -3.9224 -4.4695 12.1809 -5.5108 24.0870 4.9144 -1.3781 8.7151 -0.0000 -0.0000 0.0000 -63.4866 1.2720 27.8046 21.8340 -32.7889 -6.4957 -0.0000 -0.0000 4.5110 42.6314 -20.5582 -17.9141 -7.1250 0.0000 -0.0000 8.7111 3.2375 -8.3033 -0.0000 -0.0000 0.0000 73.4348 -11.8405 -4.9685 -13.5838 22.1365 -2.6692 0.0000 0.0000 18.9903 -23.1668 -40.0873 15.4060 7.1250 -0.0000 -0.0000 19.8712 -71.5796 -12.7254
8.1331 16.0405 -1.0099 -181.4430 6.8403 -178.1500 0.0000 0.0000 0.0000 -25.2723 -7.4248 -25.3931 4.5324 12.8370 38.7613 0.3165 -2.3447 -10.0743 10.4998 -17.6815 -61.1461 0.0000 0.0000 0.0000 -9.1726 22.0551 -41.2516 -18.4628 -19.9432 85.5014 -37.3308 35.2962 123.3027 -1.7571 -8.3406 23.7534 -11.1674 -1.4743 9.6655 -0.3960 -1.6315 8.3652 5.9624 -0.9292 3.8731 -6.8866 -2.7293 -3.4308 11.7572 -3.7775 23.2159 4.9287 -0.7161 8.0302 0.0000 -0.0000 0.0000 -64.2702 -3.0099 26.7906 23.4034 -34.5270 -7.3657 -0.0000 -0.0000 4.0036 44.0023 -21.0843 -19.1586 -7.1250 0.0000 -0.0000 9.4086 2.1171 -9.1806 0.0000 -0.0000 0.0000 74.6934 -15.3933 -5.1965 -13.8472 22.5158 -2.7693 0.0000 0.0000 19.2945 -20.8716 -38.9780 13.4873 7.1250 -0.0000 -0.0000 21.1204 -69.8217 -12.7331
8.1220 16.0957 -1.1813 -182.3560 6.0180 -180.2080 0.0000 0.0000 0.0000 -26.8352 -5.4243 -22.4070 4.2790 12.5227 37.6071 0.2850 -3.0716 -9.4938 10.3745 -17.6151 -60.7328 0.0000 0.0000 0.0000 -9.0728 20.7191 -48.2616 -19.3457 -19.9897 88.0867 -9.8685 8.2751 62.4158 -4.8856 -13.2538 40.3261 -12.1671 -2.4665 11.9890 -0.9504 -2.9276 9.3652 6.0573 -1.5238 4.0299 -6.4603 -1.6942 -3.6381 10.8368 -2.2572 23.0021 4.6381 -0.0751 7.8244 -0.0000 -0.0000 0.0000 -64.6220 -8.6952 25.6378 24.2414 -35.4185 -7.8460 -0.0000 -0.0000 4.7453 44.5208 -22.0478 -20.2618 -7.1250 0.0000 -0.0000 9.4896 0.7364 -9.4986 -0.0000 -0.0000 0.0000 76.2685 -18.6372 -6.3757 -14.0253 22.7708 -2.8379 0.0000 0.0000 19.3087 -20.6892 -38.4920 13.2274 7.1250 -0.0000 -0.0000 20.6652 -69.3250 -12.2229
8.1396 16.1301 -1.2995 -182.4830 4.6288 -180.9900 0.0000 0.0000 0.0000 -27.1541 -4.6841 -21.0654 4.2393 12.4722 37.4235 0.2661 -3.8191 -9.1793 10.5281 -17.6963 -61.2392 0.0000 0.0000 0.0000 -7.7173 18.9532 -54.3838 -14.1759 -19.1665 72.7408 -1.2457 -12.2126 -28.6834 -11.4438 -18.1455 64.2146 -12.5955 -3.4052 13.9458 -1.2087 -4.2028 9.9600 6.1801 -2.0976 3.9352 -6.0008 -0.8001 -3.5341 10.4370 -1.0392 22.2942 4.4762 0.4581 7.4492 0.0000 0.0000 0.0000 -64.9358 -14.9633 24.8236 24.6941 -35.8897 -8.1099 -0.0000 -0.0000 7.2386 42.7938 -21.4752 -18.7235 -7.1250 0.0000 -0.0000 8.6055 2.0586 -8.3869 0.0000 0.0000 0.0000 78.2151 -21.9249 -7.8414 -14.3343 23.2105 -2.9586 0.0000 0.0000 18.6745 -21.0739 -38.8660 13.5934 7.1250 -0.0000 -0.0000 20.7101 -69.7861 -12.4620
8.1334 16.1635 -1.4694 -182.2690 4.5752 -181.3240 0.0000 0.0000 0.0000 -27.0590 -3.7487 -19.7598 4.0692 12.2520 36.6293 0.2860 -3.9979 -9.5192 10.5853 -17.7261 -61.4272 0.0000 0.0000 0.0000 -5.6748 18.8321 -58.3967 -9.0415 -16.8343 56.2335 -3.2202 0.0451 -34.0460 -0.1282 2.3078 -6.3572 -12.5515 -4.1252 14.7242 -1.4590 -5.0873 10.4199 5.9784 -2.5063 4.1904 -5.5555 0.1105 -3.4046 9.8823 0.2406 21.8254 4.2739 1.0216 7.1608 0.0000 -0.0000 0.0000 -65.5227 -21.2561 23.3469 25.2920 -36.5010 -8.4630 -0.0000 -0.0000 7.7050 42.5351 -22.3789 -19.2545 -7.1250 0.0000 -0.0000 8.2499 1.0488 -8.1833 0.0000 -0.0000 0.0000 79.6290 -24.5150 -10.5025 -13.8322 22.4943 -2.7636 0.0000 0.0000 19.6402 -22.9440 -38.5439 14.7768 7.1250 -0.0000 -0.0000 17.9001 -70.0970 -10.8542
8.1177 16.2029 -1.6624 -181.9880 4.8063 -181.5070 0.0000 0.0000 0.0000 -26.9932 -2.8317 -18.4464 3.8935 12.0173 35.7933 0.3239 -4.2149 -10.1305 10.5810 -17.7239 -61.4132 0.0000 0.0000 0.0000 -4.1819 20.3487 -60.6644 -4.5858 -12.9015 39.0010 -3.4861 -1.1192 -35.8040 -0.5852 4.8983 -13.6187 -12.3808 -4.8131 15.3009 -1.6924 -5.9563 10.7051 5.7229 -2.9090 4.3268 -5.2142 0.8856 -3.8110 9.4023 1.3296 21.7498 4.1239 1.5118 7.1263 -0.0000 0.0000 0.0000 -66.6304 -26.4688 22.6169 26.0265 -37.2348 -8.9037 -0.0000 -0.0000 8.5188 46.6085 -18.9388 -18.9480 -7.1250 0.0000 -0.0000 11.4478 3.8875 -10.8684 -0.0000 0.0000 0.0000 80.4569 -27.1839 -13.0577 -13.3058 21.7336 -2.5654 0.0000 0.0000 21.7444 -25.0328 -37.3637 15.8234 7.1250 -0.0000 -0.0000 13.6787 -69.6594 -8.1239
8.1146 16.2410 -1.8823 -181.3540 4.8685 -181.5520 0.0000 0.0000 0.0000 -26.4711 -1.9344 -17.2818 3.7860 11.8700 35.2736 0.3751 -4.5469 -10.9047 10.5476 -17.7065 -61.3035 0.0000 0.0000 0.0000 0.1194 21.1483 -63.7000 -2.2136 -9.2975 26.7305 -3.1139 -24.9178 34.0979 -8.7056 -16.6145 55.0663 -11.9178 -5.5089 15.6189 -1.7587 -6.8483 10.8196 5.4819 -3.3296 4.3713 -4.8896 1.6251 -3.5243 8.7591 2.4036 21.3988 3.8994 1.9708 6.8934 0.0000 0.0000 0.0000 -68.3541 -30.8109 21.9486 28.2490 -39.3444 -10.2811 -0.0000 -0.0000 5.9919 47.5195 -21.8756 -22.1410 -7.1250 0.0000 -0.0000 11.2671 -0.2343 -11.5380 0.0000 0.0000 0.0000 81.0367 -30.0387 -15.3354 -12.9412 21.2010 -2.4320 0.0000 0.0000 23.8824 -21.5812 -38.9725 13.9704 7.1250 -0.0000 -0.0000 20.2277 -70.0464 -12.2799
8.1157 16.2640 -2.1142 -180.5610 4.6659 -181.5290 0.0000 0.0000 0.0000 -25.7944 -1.3592 -16.2701 3.7584 11.8318 35.1395 0.4435 -4.7937 -11.8556 10.4266 -17.6428 -60.9048 0.0000 0.0000 0.0000 6.5172 21.9912 -68.4937 -0.8597 -5.9125 16.5309 -4.8708 -28.1667 42.2162 -0.0673 -1.6737 4.6046 -11.1609 -6.2711 15.7117 -1.7561 -7.8176 10.8175 5.1519 -3.7855 4.3571 -5.0217 2.1836 -2.9882 8.4764 3.2052 20.9596 3.8439 2.2973 6.6021 -0.0000 -0.0000 0.0000 -70.2460 -34.6431 22.3952 30.2386 -41.0971 -11.5662 -0.0000 -0.0000 5.3804 47.9843 -23.3709 -23.7647 -7.1250 0.0000 -0.0000 11.1507 -2.3205 -11.8155 -0.0000 -0.0000 0.0000 81.4427 -32.8451 -18.0021 -12.4382 20.4586 -2.2531 0.0000 0.0000 27.0616 -20.8921 -38.9686 13.4986 7.1250 -0.0000 -0.0000 21.0815 -69.8198 -12.7080
8.1340 16.2833 -2.3760 -180.2080 3.1934 -182.4770 0.0000 0.0000 0.0000 -25.8607 -1.1303 -13.8748 3.7126 11.7678 34.9154 0.5058 -5.2599 -12.6719 10.3952 -17.6262 -60.8013 0.0000 0.0000 0.0000 8.2000 22.7718 -71.8699 -0.6986 -5.3428 14.8890 -2.8627 -13.6011 30.6395 -8.0128 16.1286 -52.6087 -10.8770 -7.0922 16.4913 -1.8812 -8.8051 11.2078 4.9911 -4.2246 4.4895 -4.7077 2.4279 -3.3176 8.1145 3.5683 21.1013 3.7053 2.4649 6.6961 -0.0000 0.0000 0.0000 -71.9645 -39.0058 24.5205 31.2526 -41.9431 -12.2383 -0.0000 -0.0000 6.6543 47.7679 -22.4483 -22.8140 -7.1250 0.0000 -0.0000 11.2646 -1.0650 -11.6989 -0.0000 0.0000 0.0000 82.5331 -35.2719 -21.8100 -11.6952 19.3460 -2.0002 0.0000 0.0000 30.3983 -21.2096 -38.2189 13.5003 7.1250 -0.0000 -0.0000 19.6533 -69.2419 -11.5713
8.1714 16.2663 -2.6337 -180.4820 0.6971 -183.2380 0.0000 0.0000 0.0000 -26.7624 -2.0469 -11.6739 3.7541 11.8257 35.1182 0.5524 -5.7210 -13.2579 10.2542 -17.5504 -60.3347 0.0000 0.0000 0.0000 4.3817 23.1241 -75.3878 -0.5141 -4.5958 12.7592 -2.1119 -8.2895 26.1045 -12.8922 18.7429 -68.7904 -11.6472 -8.2419 17.4436 -1.7399 -10.5034 11.1400 5.7660 -5.1074 4.4244 -5.5484 3.0265 -2.9483 7.9446 4.4996 21.0842 3.8294 2.8290 6.5468 0.0000 0.0000 0.0000 -74.9077 -42.7278 26.3122 31.5233 -42.1638 -12.4196 -0.0000 -0.0000 8.3929 47.7636 -22.3766 -22.7488 -7.1250 0.0000 -0.0000 11.2804 -0.9724 -11.6978 0.0000 0.0000 0.0000 81.8735 -37.6797 -23.6795 -10.8985 18.1325 -1.7442 0.0000 0.0000 33.2817 -21.7760 -36.3100 13.3091 7.1250 -0.0000 -0.0000 16.6291 -67.6446 -9.1548
8.2143 16.2566 -2.9125 -180.2560 -1.6577 -184.0740 0.0000 0.0000 0.0000 -27.0873 -3.0968 -9.0818 3.7469 11.8158 35.0835 0.5684 -6.0520 -13.4670 9.9803 -17.3988 -59.4227 0.0000 0.0000 0.0000 1.0315 23.7172 -78.9492 -0.9763 -6.2899 17.6280 -0.3194 -1.6573 10.2253 -10.3601 17.6074 -60.6852 -10.4656 -5.9289 17.8761 -1.2535 -11.9935 11.2504 5.8325 -7.6448 4.1353 -4.9993 2.9591 -2.9423 7.6701 4.4083 21.0302 3.6421 2.8069 6.5573 0.0000 -0.0000 0.0000 -78.4483 -46.6176 31.6539 31.5933 -42.2206 -12.4667 -0.0000 -0.0000 7.3445 47.4473 -22.9623 -23.0237 -7.1250 0.0000 -0.0000 10.9512 -1.5744 -11.4571 0.0000 -0.0000 0.0000 83.6756 -39.7746 -28.7940 -10.1294 16.9418 -1.5124 0.0000 0.0000 37.0597 -20.5700 -37.3997 12.8402 7.1250 -0.0000 -0.0000 19.3874 -68.2914 -10.9983
8.2621 16.2793 -3.1923 -180.1740 -3.5010 -185.4600 0.0000 0.0000 0.0000 -27.5176 -3.8925 -5.9782 3.7923 11.8787 35.3042 0.5663 -6.0924 -13.4466 9.8713 -17.3368 -59.0573 0.0000 0.0000 0.0000 -2.8418 25.0648 -81.7915 -1.6550 -8.1071 23.0400 -0.0297 -2.7202 3.3646 -6.2954 14.7086 -46.1562 -10.9074 -6.1104 18.9220 -0.9854 -12.4944 11.3755 6.5372 -7.9729 4.0080 -5.1872 2.9602 -2.9168 7.4825 4.4718 21.1341 3.6201 2.8132 6.5840 0.0000 0.0000 0.0000 -83.1647 -48.7454 37.4766 32.5281 -42.9642 -13.0994 -0.0000 -0.0000 5.9404 47.5345 -24.3058 -24.2150 -7.1250 0.0000 -0.0000 10.6539 -3.2856 -11.4420 0.0000 0.0000 0.0000 84.6947 -41.1554 -34.0377 -9.3976 15.7919 -1.3062 0.0000 0.0000 41.3909 -20.9701 -35.3913 12.5151 7.1250 -0.0000 -0.0000 16.6259 -66.5370 -8.7340
8.2931 16.3371 -3.4946 -180.0740 -4.7866 -186.7160 0.0000 0.0000 0.0000 -27.8806 -4.3189 -3.1443 3.9572 12.1032 36.0980 0.5018 -6.8926 -12.7853 9.1187 -16.8835 -56.4996 0.0000 0.0000 0.0000 -4.4706 26.5173 -84.8165 -2.6197 -10.0524 29.1467 -0.0362 -4.1486 4.1837 -7.8054 15.9742 -51.8586 -11.4101 -6.2826 20.0449 -0.6781 -12.9244 11.1489 7.3871 -8.1953 3.4774 -5.4213 3.1878 -2.5400 7.3063 4.8581 21.1912 3.6141 2.9756 6.5113 0.0000 -0.0000 0.0000 -87.5056 -49.4317 42.2943 34.1412 -44.1890 -14.2114 -0.0000 -0.0000 7.2150 45.7182 -24.4124 -22.9670 -7.1250 0.0000 -0.0000 9.6013 -2.6379 -10.1743 0.0000 -0.0000 0.0000 85.1384 -42.5406 -38.0139 -8.8818 14.9719 -1.1694 0.0000 0.0000 45.0427 -21.0615 -35.4018 12.5761 7.1250 -0.0000 -0.0000 16.5267 -66.5737 -8.6945
8.3204 16.4238 -3.7914 -179.4190 -5.5878 -187.4110 0.0000 0.0000 0.0000 -27.2906 -4.2093 -1.5792 3.9641 12.1125 36.1311 0.3823 -5.1123 -11.0443 9.9432 -17.3778 -59.2983 0.0000 0.0000 0.0000 -6.6726 28.3374 -87.6896 -3.7918 -11.8780 35.3019 -0.0411 -6.4180 5.4956 -7.8683 16.0216 -52.0871 -11.1884 -6.2874 20.0562 -0.2882 -12.8859 11.2242 7.6685 -8.1984 3.6025 -4.8928 3.0769 -3.0302 6.6255 4.7946 21.4556 3.3280 2.9339 6.7242 -0.0000 0.0000 0.0000 -92.1890 -49.9058 47.9967 35.8526 -45.4114 -15.4174 -0.0000 -0.0000 9.5830 46.2368 -24.7619 -23.6213 -7.1250 0.0000 -0.0000 9.8053 -3.2820 -10.5020 -0.0000 0.0000 0.0000 86.5162 -42.8215 -42.4519 -8.4537 14.2856 -1.0613 0.0000 0.0000 48.6051 -21.2037 -35.1801 12.5994 7.1250 -0.0000 -0.0000 16.1286 -66.4047 -8.4180
